<svg width="26" height="27" viewBox="0 0 26 27" fill="none" xmlns="http://www.w3.org/2000/svg">
<path d="M5.58823 12.9486C5.50864 14.4609 5.60014 16.0707 4.24898 17.0841C3.62011 17.5558 3.25 18.296 3.25 19.0821C3.25 20.1634 4.09695 21.0833 5.2 21.0833H20.8C21.903 21.0833 22.75 20.1634 22.75 19.0821C22.75 18.296 22.3799 17.5558 21.751 17.0841C20.3999 16.0707 20.4914 14.4609 20.4118 12.9486C20.2043 9.00658 16.9475 5.91666 13 5.91666C9.05252 5.91666 5.79571 9.00657 5.58823 12.9486Z" stroke="#141B34" stroke-width="1.8" stroke-linecap="round" stroke-linejoin="round"/>
<path d="M11.375 3.88541C11.375 4.78288 12.1025 5.91666 13 5.91666C13.8975 5.91666 14.625 4.78288 14.625 3.88541C14.625 2.98795 13.8975 2.66666 13 2.66666C12.1025 2.66666 11.375 2.98795 11.375 3.88541Z" stroke="#141B34" stroke-width="1.8"/>
<path d="M16.25 21.0833C16.25 22.8783 14.7949 24.3333 13 24.3333C11.2051 24.3333 9.75 22.8783 9.75 21.0833" stroke="#141B34" stroke-width="1.8" stroke-linecap="round" stroke-linejoin="round"/>
<circle cx="20" cy="4.5" r="3.75" fill="#FF0000" stroke="white" stroke-width="0.5"/>
</svg>
