<svg width="69" height="68" viewBox="0 0 69 68" fill="none" xmlns="http://www.w3.org/2000/svg">
<path d="M18.667 14.9999V11.8333C18.667 7.35491 18.667 5.11574 20.0582 3.72449C21.4495 2.33325 23.6886 2.33325 28.167 2.33325H40.8337C45.312 2.33325 47.5512 2.33325 48.9424 3.72449C50.3337 5.11574 50.3337 7.35491 50.3337 11.8333V14.9999C50.3337 19.4783 50.3337 21.7174 48.9424 23.1087C47.5512 24.4999 45.312 24.4999 40.8337 24.4999H37.667L28.167 30.8333V24.4999C23.6886 24.4999 21.4495 24.4999 20.0582 23.1087C18.667 21.7174 18.667 19.4783 18.667 14.9999Z" stroke="white" stroke-width="4" stroke-linejoin="round"/>
<path d="M7.8686 55.3458C5.87744 56.6797 0.65675 59.4032 3.8365 62.8112C5.38978 64.476 7.11974 65.6667 9.29472 65.6667H15.5002H21.7056C23.8806 65.6667 25.6105 64.476 27.1638 62.8112C30.3436 59.4032 25.1229 56.6797 23.1317 55.3458C18.4625 52.2181 12.5378 52.2181 7.8686 55.3458Z" stroke="white" stroke-width="4"/>
<path d="M45.8686 55.3458C43.8774 56.6797 38.6567 59.4032 41.8365 62.8112C43.3898 64.476 45.1197 65.6667 47.2947 65.6667H53.5002H59.7056C61.8806 65.6667 63.6105 64.476 65.1638 62.8112C68.3436 59.4032 63.1229 56.6797 61.1317 55.3458C56.4625 52.2181 50.5378 52.2181 45.8686 55.3458Z" stroke="white" stroke-width="4"/>
<path d="M21.8337 38.7501C21.8337 42.2479 18.9981 45.0834 15.5003 45.0834C12.0025 45.0834 9.16699 42.2479 9.16699 38.7501C9.16699 35.2523 12.0025 32.4167 15.5003 32.4167C18.9981 32.4167 21.8337 35.2523 21.8337 38.7501Z" stroke="white" stroke-width="4"/>
<path d="M59.8337 38.7501C59.8337 42.2479 56.9981 45.0834 53.5003 45.0834C50.0025 45.0834 47.167 42.2479 47.167 38.7501C47.167 35.2523 50.0025 32.4167 53.5003 32.4167C56.9981 32.4167 59.8337 35.2523 59.8337 38.7501Z" stroke="white" stroke-width="4"/>
</svg>
