<svg width="30" height="31" viewBox="0 0 30 31" fill="none" xmlns="http://www.w3.org/2000/svg">
<path d="M15 15.5C13.625 15.5 12.4479 15.0104 11.4688 14.0312C10.4896 13.0521 10 11.875 10 10.5C10 9.125 10.4896 7.94792 11.4688 6.96875C12.4479 5.98958 13.625 5.5 15 5.5C16.375 5.5 17.5521 5.98958 18.5312 6.96875C19.5104 7.94792 20 9.125 20 10.5C20 11.875 19.5104 13.0521 18.5312 14.0312C17.5521 15.0104 16.375 15.5 15 15.5ZM5 25.5V22C5 21.2917 5.18229 20.6406 5.54688 20.0469C5.91146 19.4531 6.39583 19 7 18.6875C8.29167 18.0417 9.60417 17.5573 10.9375 17.2344C12.2708 16.9115 13.625 16.75 15 16.75C16.375 16.75 17.7292 16.9115 19.0625 17.2344C20.3958 17.5573 21.7083 18.0417 23 18.6875C23.6042 19 24.0885 19.4531 24.4531 20.0469C24.8177 20.6406 25 21.2917 25 22V25.5H5ZM7.5 23H22.5V22C22.5 21.7708 22.4427 21.5625 22.3281 21.375C22.2135 21.1875 22.0625 21.0417 21.875 20.9375C20.75 20.375 19.6146 19.9531 18.4688 19.6719C17.3229 19.3906 16.1667 19.25 15 19.25C13.8333 19.25 12.6771 19.3906 11.5312 19.6719C10.3854 19.9531 9.25 20.375 8.125 20.9375C7.9375 21.0417 7.78646 21.1875 7.67188 21.375C7.55729 21.5625 7.5 21.7708 7.5 22V23ZM15 13C15.6875 13 16.276 12.7552 16.7656 12.2656C17.2552 11.776 17.5 11.1875 17.5 10.5C17.5 9.8125 17.2552 9.22396 16.7656 8.73438C16.276 8.24479 15.6875 8 15 8C14.3125 8 13.724 8.24479 13.2344 8.73438C12.7448 9.22396 12.5 9.8125 12.5 10.5C12.5 11.1875 12.7448 11.776 13.2344 12.2656C13.724 12.7552 14.3125 13 15 13Z" fill="#141B34"/>
</svg>
