<svg width="63" height="64" viewBox="0 0 63 64" fill="none" xmlns="http://www.w3.org/2000/svg">
<path d="M23.625 12.3125C14.4491 15.4652 7.875 23.9721 7.875 33.9716C7.875 37.1394 8.53477 40.1574 9.72801 42.9028M39.375 12.3125C48.5509 15.4652 55.125 23.9721 55.125 33.9716C55.125 36.6558 54.6513 39.2325 53.7807 41.6269M43.3125 53.8651C39.8376 55.8191 35.8031 56.9375 31.5 56.9375C27.1969 56.9375 23.1624 55.8191 19.6875 53.8651" stroke="white" stroke-width="3"/>
<path d="M39.375 13.625C39.375 17.9742 35.8492 21.5 31.5 21.5C27.1508 21.5 23.625 17.9742 23.625 13.625C23.625 9.27576 27.1508 5.75 31.5 5.75C35.8492 5.75 39.375 9.27576 39.375 13.625Z" stroke="white" stroke-width="3"/>
<circle cx="13.125" cy="50.375" r="7.875" stroke="white" stroke-width="3"/>
<circle cx="49.875" cy="50.375" r="7.875" stroke="white" stroke-width="3"/>
</svg>
