<svg width="243" height="58" viewBox="0 0 243 58" fill="none" xmlns="http://www.w3.org/2000/svg">
<path d="M129.843 18.915V23.046C132.597 19.239 136.242 17.943 140.535 18.267C144.018 18.51 146.772 20.049 149.04 22.641C153.819 28.068 153.171 36.654 147.825 41.595C143.613 45.483 134.784 46.536 129.924 40.056V54.15H125.55V18.915H129.924H129.843ZM147.825 31.47C147.825 26.286 144.018 22.317 138.915 22.317C133.731 22.317 129.843 26.286 129.843 31.47C129.843 36.654 133.731 40.542 138.834 40.542C143.937 40.542 147.825 36.654 147.825 31.47Z" fill="black"/>
<path d="M121.338 15.9182C120.042 16.6472 118.827 17.3762 117.531 18.1052C117.288 17.7002 117.045 17.2952 116.883 16.9712C114.777 13.2452 109.998 11.6252 106.029 13.4072C104.247 14.2172 103.113 15.5132 102.951 17.6192C102.789 19.7252 103.68 21.2642 105.624 22.0742C108.378 23.2082 111.213 24.1802 114.048 25.3142C116.154 26.1242 118.179 27.0152 119.961 28.5542C123.282 31.3892 123.282 38.3552 119.637 41.5952C117.531 43.5392 115.02 44.5112 112.185 44.7542C107.892 45.1592 103.761 44.5112 100.359 41.5952C98.5769 40.1372 97.1999 37.9502 96.7949 36.0872C98.0909 35.3582 99.3869 34.6292 100.683 33.9002C100.764 34.0622 100.845 34.1432 100.926 34.3052C103.194 39.6512 109.836 42.0002 114.939 39.3272C116.721 38.4362 117.693 36.9782 117.693 34.9532C117.693 32.9282 116.802 31.4702 115.02 30.6602C112.347 29.5262 109.593 28.6352 106.92 27.5822C105.543 27.0962 104.166 26.5292 102.87 25.8812C97.0379 23.2082 97.0379 15.7562 100.278 12.0302C105.948 5.46917 118.26 7.73717 121.257 16.0802" fill="black"/>
<path d="M201.609 44.0245H197.235V42.8095C197.235 38.3545 197.235 33.9805 197.235 29.5255C197.235 28.7155 197.235 27.8245 197.073 27.0145C196.425 23.6935 193.509 21.9115 189.864 22.4785C186.3 22.9645 184.032 25.3135 183.789 28.9585C183.546 33.1705 183.627 37.3825 183.627 41.5945C183.627 42.4045 183.627 43.2955 183.627 44.1865H179.253V19.0765H183.627V22.3975C184.032 21.9925 184.194 21.8305 184.356 21.5875C188.001 17.2135 195.534 17.1325 199.26 21.3445C200.961 23.2075 201.609 25.4755 201.69 27.9055C201.69 33.1705 201.69 38.5165 201.69 43.7815C201.69 43.8625 201.69 43.9435 201.609 44.1055" fill="black"/>
<path d="M239.112 23.4508C237.816 24.1798 236.682 24.8278 235.548 25.4758C235.386 25.3138 235.305 25.2328 235.224 25.1518C233.604 22.5598 230.121 21.5068 227.367 22.8838C226.233 23.4508 225.585 24.1798 225.504 25.4758C225.504 26.7718 226.071 27.6628 227.205 28.0678C229.635 28.9588 232.146 29.8498 234.657 30.6598C236.925 31.4698 238.788 32.7658 239.436 35.1958C240.327 38.3548 239.112 41.3518 236.439 43.1338C232.47 45.7258 225.909 45.2398 222.426 41.9998C221.535 41.1898 220.806 40.0558 219.996 38.9218C221.454 38.1118 222.669 37.3828 223.884 36.7348C226.071 40.2178 229.473 41.4328 233.037 40.1368C234.333 39.6508 235.143 38.8408 235.305 37.4638C235.386 36.0868 234.657 35.1148 233.442 34.6288C231.174 33.7378 228.906 33.0088 226.638 32.1988C225.909 31.9558 225.18 31.7128 224.532 31.3888C221.211 29.5258 220.077 25.4758 222.021 22.2358C224.127 18.9148 227.367 17.9428 231.012 18.1858C234.576 18.4288 237.411 20.0488 239.193 23.4508" fill="black"/>
<path d="M208.413 23.0461H203.472V18.9151H208.413C208.413 17.2951 208.413 15.7561 208.413 14.2171C208.413 13.3261 208.737 12.9211 209.547 12.7591C210.6 12.5161 211.653 12.1921 212.868 11.7871V18.8341H219.591V22.9651H212.949C212.949 23.4511 212.949 23.7751 212.949 24.0991C212.949 28.1491 212.949 32.1991 212.949 36.2491C212.949 36.8161 212.949 37.3831 213.111 37.8691C213.354 39.2461 214.083 40.0561 215.541 40.0561C216.918 40.0561 218.214 40.0561 219.672 40.0561V43.9441C217.242 44.2681 214.812 44.4301 212.463 43.6201C210.195 42.8101 209.142 41.1091 208.737 38.8411C208.575 37.6261 208.494 36.3301 208.494 35.1151C208.494 31.0651 208.494 27.0961 208.494 22.8841" fill="black"/>
<path d="M155.601 18.8337H159.894V22.4787L160.056 22.6407C161.757 19.6437 164.349 18.3477 167.751 18.3477V22.8837C167.022 22.9647 166.212 23.0457 165.483 23.2077C162.324 23.8557 160.218 25.9617 160.056 29.2017C159.894 32.7657 159.975 36.3297 159.894 39.9747C159.894 41.2707 159.894 42.5667 159.894 44.0247H155.52V18.9147L155.601 18.8337Z" fill="black"/>
<path d="M175.446 18.915H171.153V44.025H175.446V18.915Z" fill="black"/>
<path d="M170.343 11.2199C170.343 9.51889 171.639 8.22289 173.34 8.30389C174.96 8.30389 176.337 9.68089 176.256 11.3819C176.256 13.0019 174.879 14.2979 173.259 14.2979C171.558 14.2979 170.262 13.0019 170.262 11.3009" fill="black"/>
<path d="M60.2639 3.20057L45.2789 42.9716C43.6589 47.0216 40.3379 50.2616 36.2069 51.8006C36.2069 51.8006 36.0449 51.8006 35.9639 51.8816C35.9639 51.8816 35.8019 51.8816 35.7209 51.8816C33.2099 52.7726 30.4559 53.1776 27.6209 53.1776C24.7859 53.1776 26.4059 53.1776 25.8389 53.1776L41.1479 12.6776C41.9579 10.9766 43.0109 9.43757 44.3069 8.14157C45.8459 6.60257 47.7899 5.30657 49.8959 4.57757C50.0579 4.57757 50.1389 4.49657 50.3009 4.41557C52.8119 3.52457 55.5659 3.03857 58.4009 3.03857C61.2359 3.03857 59.6159 3.03857 60.2639 3.03857V3.20057Z" fill="#004EFF"/>
<path d="M83.5108 28.23C83.5108 39.894 75.5728 49.614 64.8808 52.449C64.8808 52.449 64.8808 52.449 64.7998 52.449C64.7998 52.449 64.6378 52.449 64.5568 52.449C64.0708 52.449 63.5848 52.125 63.4228 51.639L58.7248 39.084C58.7248 38.922 58.7248 38.841 58.7248 38.679C58.7248 38.112 59.1298 37.626 59.6968 37.464C64.3138 36.897 67.8778 32.928 67.8778 28.149C67.8778 23.37 63.6658 18.753 58.4818 18.753C53.2978 18.753 58.2388 18.753 58.0768 18.753L63.7468 3.60596C75.0868 6.03596 83.5108 16.08 83.5108 28.149V28.23Z" fill="#004EFF"/>
<path d="M28.0258 37.6257L22.3558 52.7727C11.0158 50.3427 2.5918 40.2987 2.5918 28.2297C2.5918 16.1607 10.5298 6.76469 21.2218 3.92969C21.3028 3.92969 21.3838 3.92969 21.5458 3.92969C22.0318 3.92969 22.4368 4.25369 22.6798 4.65869L27.4588 17.2137C27.4588 17.2947 27.4588 17.4567 27.4588 17.5377C27.4588 18.1047 27.0538 18.5907 26.4868 18.7527C26.4868 18.7527 26.4868 18.7527 26.4058 18.7527C21.7888 19.3197 18.2248 23.2887 18.2248 28.0677C18.2248 32.8467 22.4368 37.4637 27.6208 37.4637C32.8048 37.4637 27.8638 37.4637 28.0258 37.4637V37.6257Z" fill="#004EFF"/>
</svg>
