<svg width="19" height="19" viewBox="0 0 19 19" fill="none" xmlns="http://www.w3.org/2000/svg">
<path d="M8.92309 1.32544C9.12759 0.696049 10.018 0.69605 10.2225 1.32544L11.9118 6.52448C12.0032 6.80595 12.2655 6.99652 12.5615 6.99652H18.0281C18.6899 6.99652 18.965 7.84336 18.4296 8.23235L14.0071 11.4455C13.7676 11.6195 13.6674 11.9278 13.7589 12.2093L15.4482 17.4084C15.6527 18.0377 14.9323 18.5611 14.3969 18.1721L9.97435 14.959C9.73491 14.785 9.41069 14.785 9.17126 14.959L4.74869 18.1721C4.2133 18.5611 3.49294 18.0377 3.69744 17.4084L5.38671 12.2093C5.47816 11.9278 5.37797 11.6195 5.13854 11.4455L0.71597 8.23235C0.180579 7.84336 0.455735 6.99652 1.11751 6.99652H6.58411C6.88007 6.99652 7.14237 6.80595 7.23382 6.52448L8.92309 1.32544Z" fill="white"/>
</svg>
