<svg width="24" height="24" viewBox="0 0 24 24" fill="none" xmlns="http://www.w3.org/2000/svg">
<path d="M1.3636 17.3636C1.01213 17.7151 1.01213 18.2849 1.3636 18.6364C1.71508 18.9879 2.28492 18.9879 2.6364 18.6364L1.3636 17.3636ZM9.39782 13.1183L8.8356 13.821H8.8356L9.39782 13.1183ZM11.5173 14.8138L10.9551 15.5166L11.5173 14.8138ZM14.2615 14.5808L13.5888 13.9829L14.2615 14.5808ZM21.6727 7.59793C22.0029 7.22642 21.9694 6.65756 21.5979 6.32733C21.2264 5.99711 20.6576 6.03057 20.3273 6.40207L21.6727 7.59793ZM12.9679 15.6225L13.0441 16.5192H13.0441L12.9679 15.6225ZM8.01892 12.3415L8.06869 13.2402L8.06869 13.2402L8.01892 12.3415ZM18 5.1C17.5029 5.1 17.1 5.50294 17.1 6C17.1 6.49706 17.5029 6.9 18 6.9V5.1ZM21.1 10C21.1 10.4971 21.5029 10.9 22 10.9C22.4971 10.9 22.9 10.4971 22.9 10H21.1ZM21.7071 6.29289L22.3435 5.6565V5.6565L21.7071 6.29289ZM5 7.1C4.50294 7.1 4.1 7.50294 4.1 8C4.1 8.49706 4.50294 8.9 5 8.9V7.1ZM11 8.9C11.4971 8.9 11.9 8.49706 11.9 8C11.9 7.50294 11.4971 7.1 11 7.1V8.9ZM2 18L2.6364 18.6364L7.37061 13.9022L6.73422 13.2658L6.09782 12.6294L1.3636 17.3636L2 18ZM9.39782 13.1183L8.8356 13.821L10.9551 15.5166L11.5173 14.8138L12.0795 14.111L9.96005 12.4155L9.39782 13.1183ZM14.2615 14.5808L14.9342 15.1787L21.6727 7.59793L21 7L20.3273 6.40207L13.5888 13.9829L14.2615 14.5808ZM11.5173 14.8138L10.9551 15.5166C11.2867 15.782 11.6034 16.0376 11.891 16.2116C12.2009 16.3989 12.5816 16.5585 13.0441 16.5192L12.9679 15.6225L12.8918 14.7257C12.9566 14.7202 12.963 14.7562 12.8224 14.6713C12.6597 14.5728 12.4498 14.4073 12.0795 14.111L11.5173 14.8138ZM14.2615 14.5808L13.5888 13.9829C13.2738 14.3373 13.0948 14.5359 12.951 14.6603C12.8268 14.7678 12.827 14.7312 12.8918 14.7257L12.9679 15.6225L13.0441 16.5192C13.5065 16.48 13.8549 16.2585 14.1287 16.0216C14.383 15.8016 14.652 15.4962 14.9342 15.1787L14.2615 14.5808ZM6.73422 13.2658L7.37061 13.9022C7.68856 13.5842 7.86756 13.4077 8.00954 13.298C8.13126 13.2039 8.12963 13.2368 8.06869 13.2402L8.01892 12.3415L7.96915 11.4429C7.52662 11.4674 7.18368 11.6614 6.90897 11.8736C6.65451 12.0702 6.38196 12.3452 6.09782 12.6294L6.73422 13.2658ZM9.39782 13.1183L9.96005 12.4155C9.64627 12.1645 9.34501 11.9212 9.07041 11.7539C8.77393 11.5733 8.41167 11.4184 7.96914 11.4429L8.01892 12.3415L8.06869 13.2402C8.00774 13.2435 8.00249 13.211 8.13385 13.2911C8.28708 13.3844 8.48449 13.5402 8.8356 13.821L9.39782 13.1183ZM18 6V6.9H20V6V5.1H18V6ZM22 8H21.1V10H22H22.9V8H22ZM20 6V6.9C20.4968 6.9 20.7789 6.90191 20.9774 6.92859C21.1499 6.95178 21.1194 6.97793 21.0707 6.92929L21.7071 6.29289L22.3435 5.6565C22.002 5.31496 21.5893 5.19467 21.2172 5.14464C20.871 5.09809 20.446 5.1 20 5.1V6ZM22 8H22.9C22.9 7.55404 22.9019 7.12903 22.8554 6.78281C22.8053 6.41069 22.685 5.99804 22.3435 5.6565L21.7071 6.29289L21.0707 6.92929C21.0221 6.88064 21.0482 6.85014 21.0714 7.02265C21.0981 7.22106 21.1 7.50315 21.1 8H22ZM5 8V8.9H11V8V7.1H5V8Z" fill="#F98A41"/>
</svg>
