<svg width="25" height="25" viewBox="0 0 25 25" fill="none" xmlns="http://www.w3.org/2000/svg">
<path d="M2.47168 11.3259C4.80338 8.88375 8.11491 8.76876 10.4717 11.3259M8.96677 4.82593C8.96677 6.20664 7.84589 7.32593 6.46321 7.32593C5.08053 7.32593 3.95965 6.20664 3.95965 4.82593C3.95965 3.44522 5.08053 2.32593 6.46321 2.32593C7.84589 2.32593 8.96677 3.44522 8.96677 4.82593Z" stroke="white" stroke-width="1.8" stroke-linecap="round"/>
<path d="M14.4717 22.3259C16.8034 19.8838 20.1149 19.7688 22.4717 22.3259M20.9668 15.8259C20.9668 17.2066 19.8459 18.3259 18.4632 18.3259C17.0805 18.3259 15.9596 17.2066 15.9596 15.8259C15.9596 14.4452 17.0805 13.3259 18.4632 13.3259C19.8459 13.3259 20.9668 14.4452 20.9668 15.8259Z" stroke="white" stroke-width="1.8" stroke-linecap="round"/>
<path d="M3.47168 14.3259C3.47168 18.1959 6.60168 21.3259 10.4717 21.3259L9.47168 19.3259" stroke="white" stroke-width="1.8" stroke-linecap="round" stroke-linejoin="round"/>
<path d="M15.4717 3.32593H21.4717M15.4717 6.32593H21.4717M15.4717 9.32593H18.9717" stroke="white" stroke-width="1.8" stroke-linecap="round" stroke-linejoin="round"/>
</svg>
